PathFileType	4	(X/Y/Z)	C:/Users/beibeiliu/ov580/test_trc/User3\sequence.26_training_dense_left.trc
DataRate	CameraRate	NumFrames	NumMarkers	Units	OrigDataRate	OrigDataStartFrame	OrigNumFrames
120	120	15	19	mm	120	26	102
Frame#	Time	ThumbCMC			ThumbMCP			ThumbIP			ThumbTip			IndexMCP			IndexPIP			IndexTip			MiddleMCP			MiddlePIP			MiddleTip			RingMCP			RingPIP			RingTip			PinkyMCP			PinkyPIP			PinkyTip			BackHand1			BackHand2			BackHand3	
		X0	Y0	Z0	X1	Y1	Z1	X2	Y2	Z2	X3	Y3	Z3	X4	Y4	Z4	X5	Y5	Z5	X6	Y6	Z6	X7	Y7	Z7	X8	Y8	Z8	X9	Y9	Z9	X10	Y10	Z10	X11	Y11	Z11	X12	Y12	Z12	X13	Y13	Z13	X14	Y14	Z14	X15	Y15	Z15	X16	Y16	Z16	X17	Y17	Z17	X18	Y18	Z18	
25	0.208333	-138.464	-1.90705	20.8821	-121.864	2.21773	-10.7553	-118.335	4.5097	-42.9068	-120.658	-0.406795	-65.9708	-177.83	29.9333	-43.4808	-168.77	26.1135	-73.8951	-151.4	8.6099	-90.0021	-195.681	23.1792	-46.6107	-187.176	19.7047	-78.8479	-166.59	-6.88749	-95.6837	-207.422	3.26966	-42.528	-200.744	-2.63721	-73.5535	-180.429	-23.1853	-87.9935	-209.235	-15.0555	-33.9674	-205.47	-19.4198	-59.7824	-187.236	-31.8926	-74.929	-203.824	-8.4406	16.0667	-196.122	-15.251	39.4851	-175.928	8.2762	28.247	
26	0.216667	-136.213	1.6531	19.0371	-123.512	3.33583	-12.5913	-122.604	3.90462	-41.4755	-126.495	-1.8936	-64.1482	-173.925	32.2747	-39.3112	-172.54	27.0042	-70.9358	-155.827	11.5875	-88.3594	-197.798	20.7801	-46.3002	-187.85	20.5689	-75.7457	-167.383	-1.7326	-95.5478	-204.156	6.49474	-42.137	-198.552	0.519131	-72.4387	-177.499	-18.2335	-88.4486	-211.305	-17.8013	-31.8438	-203.217	-17.7764	-58.8906	-189.091	-29.7978	-76.2625	-204.735	-7.72568	11.9088	-198.273	-19.7253	42.9412	-175.012	9.82502	27.631	
27	0.225	-139.479	-0.450884	20.1674	-121.989	2.5545	-9.76797	-120.158	6.08498	-43.6728	-122.479	0.12787	-67.2949	-177.396	28.8075	-38.1557	-169.241	28.8166	-72.626	-157.155	9.42716	-89.0212	-195.048	23.1403	-46.6488	-190.835	17.361	-77.7178	-163.909	-4.8575	-97.0172	-206.939	2.8192	-40.5275	-199.474	-2.17214	-72.6616	-182.491	-18.851	-87.2931	-213.006	-19.0524	-31.9128	-206.186	-18.1967	-55.267	-188.127	-30.8922	-74.2682	-200.532	-6.61021	14.2407	-196.863	-21.05	41.6794	-177.225	9.37392	25.7448	
28	0.233333	-136.799	2.46056	18.7752	-125.349	0.687248	-8.24048	-120.694	2.96965	-39.8909	-123.219	-2.19937	-62.7786	-177.177	30.0699	-40.7769	-171.991	27.0023	-70.4083	-153.995	5.89335	-90.7879	-193.996	22.0247	-42.5436	-188.289	18.0881	-78.3751	-169.823	-4.2816	-94.1801	-204.96	4.01278	-42.6581	-198.221	0.423451	-72.5041	-180.638	-17.0406	-86.9902	-209.85	-16.8186	-30.8866	-205.453	-20.6875	-58.9417	-187.82	-32.1454	-76.1398	-205.463	-6.82762	12.08	-195.707	-18.9523	43.5707	-177.063	9.71809	29.2713	
29	0.241667	-136.291	-0.521684	21.919	-126.751	1.05146	-9.9085	-116.01	4.80236	-38.9599	-120.319	-1.70525	-64.2567	-177.747	28.1486	-38.341	-170.493	27.4883	-70.6637	-150.877	9.14384	-89.6426	-198.282	20.0731	-44.5791	-190.121	16.9082	-76.7777	-165.469	-7.00714	-95.5476	-204.246	3.70338	-40.959	-199.251	-0.813858	-70.504	-182.927	-20.4612	-86.6547	-207.762	-16.6036	-30.6871	-204.546	-19.3396	-59.3369	-185.928	-30.8042	-75.0806	-199.908	-6.14181	16.2685	-194.358	-18.3675	40.6914	-175.062	10.0626	29.8865	
30	0.25	-139.911	-0.80803	18.9062	-123.741	3.0665	-11.4546	-120.077	1.39597	-37.5117	-123.985	-2.7041	-64.4524	-175.226	31.354	-42.4924	-172.706	25.703	-69.3115	-153.975	5.2896	-90.8291	-197.272	18.1816	-42.0112	-191.615	14.9747	-76.9212	-170.248	-7.3732	-93.7044	-205.756	4.19303	-41.792	-200.965	-3.66302	-71.5479	-178.517	-18.5101	-86.144	-209.579	-17.4783	-32.7024	-206.236	-20.738	-56.8971	-185.389	-33.0462	-77.3731	-205.491	-7.22591	13.9691	-196.08	-20.1577	41.8738	-176.903	9.09893	28.7924	
31	0.258333	-137.651	-0.900695	21.6501	-121.22	2.33572	-10.1481	-119.478	2.53755	-36.5556	-119.113	-0.409502	-63.8504	-177.118	29.0201	-41.7289	-169.675	27.9148	-69.7043	-152.821	9.68113	-89.6753	-195.803	21.0689	-45.6527	-188.644	15.8935	-76.7383	-165.499	-6.3018	-95.4685	-205.969	0.863696	-39.3287	-201.194	-0.463899	-67.4731	-180.279	-18.951	-86.1198	-210.617	-20.3506	-29.7208	-206.587	-22.196	-58.9031	-190.188	-31.6177	-74.2458	-203.36	-6.85301	15.5396	-193.185	-19.4334	42.8153	-172.271	11.2101	27.8219	
32	0.266667	-137.079	-0.848473	20.7057	-122.584	1.18237	-8.03654	-115.776	2.85091	-37.7404	-121.496	-1.9852	-62.0983	-173.81	30.1539	-36.7656	-170.449	25.9424	-69.9932	-155.558	8.01144	-89.4077	-196.063	18.5322	-41.979	-191.295	16.8019	-75.3835	-166.915	-5.43236	-93.8894	-204.027	3.64922	-38.2893	-202.638	-0.690073	-67.3718	-182.84	-18.6327	-85.2222	-211.136	-20.536	-31.1431	-204.163	-19.0926	-56.9109	-186.501	-32.1798	-75.3546	-203.801	-7.16014	14.8405	-192.891	-19.4184	42.9606	-175.59	5.90849	28.5791	
33	0.275	-134.401	1.18123	22.3907	-121.426	2.55589	-9.24472	-117.206	3.64469	-41.4374	-120.224	-2.26441	-60.942	-176.626	26.4801	-38.0231	-172.57	24.232	-69.9664	-155.209	7.20871	-89.0099	-194.899	20.4801	-44.3722	-190.919	16.8795	-74.8866	-168.791	-4.00719	-93.6193	-203.581	3.90247	-40.4766	-201.473	-1.10373	-67.4145	-180.96	-20.451	-85.9579	-211.42	-18.753	-34.0109	-203.197	-19.8947	-57.0833	-190.298	-32.9496	-76.1034	-201.033	-4.78119	14.93	-195.104	-16.7755	39.9606	-176.521	9.03963	28.4539	
34	0.283333	-135.505	0.0293756	22.3798	-119.21	1.26601	-8.16317	-116.389	1.89043	-37.1886	-121.531	-2.80505	-61.9023	-174.175	28.5069	-37.2294	-169.768	22.8742	-72.3669	-157.037	8.63173	-88.3254	-194.771	22.171	-44.8567	-189.755	15.9218	-76.7399	-165.879	-7.40678	-94.5308	-205.403	2.74795	-38.7128	-198.707	1.03196	-70.0052	-179.999	-20.1686	-86.4409	-209.853	-20.6117	-28.6356	-203.562	-19.5217	-58.2283	-186.458	-30.267	-75.4353	-200.168	-4.80728	15.2905	-193.728	-18.8454	43.6017	-176.238	8.27578	28.1804	
35	0.291667	-133.165	-1.05201	23.2514	-121.994	1.70527	-10.8151	-118.64	1.17047	-37.2219	-122.283	-4.41332	-62.1742	-173.93	29.9584	-38.6941	-166.071	25.8666	-72.7745	-154.61	9.55222	-88.0161	-197.613	19.2827	-45.1962	-188.234	16.9632	-76.3326	-165.784	-4.80608	-95.0951	-205.693	2.14525	-39.0785	-199.384	-0.303214	-70.7599	-180.917	-17.5985	-85.3069	-210.706	-17.3647	-32.9444	-203.337	-19.3307	-58.9827	-189.493	-32.2021	-74.1953	-203.173	-5.83714	13.8464	-196.148	-18.8374	42.3227	-174.037	6.3736	29.1037	
36	0.3	-133.318	-0.197452	22.8165	-123.028	1.19039	-10.2575	-118	1.08963	-37.0602	-116.891	-2.0011	-64.7166	-176.153	26.2164	-39.4224	-171.571	24.9619	-68.8672	-156.766	7.37779	-88.6017	-195.646	19.5881	-42.7291	-189.02	19.1891	-74.3799	-170.317	-6.12961	-94.367	-204.689	1.36571	-37.4125	-200.928	0.569045	-67.0416	-177.392	-19.0713	-86.6854	-208.072	-16.9398	-33.0502	-202.475	-18.2774	-57.1587	-187.017	-33.3417	-75.9355	-202.748	-10.0325	15.6678	-195.869	-18.2783	41.0536	-174.524	6.32635	28.4634	
37	0.308333	-135.516	-0.314822	20.9319	-123.241	2.4186	-11.1949	-116.846	1.78683	-36.3809	-115.687	-0.659934	-63.3113	-176.481	27.2625	-43.0278	-169.695	25.0269	-71.8423	-152.332	9.68869	-89.5945	-196.102	17.4474	-41.6652	-190.301	16.7007	-75.0477	-170.42	-6.27485	-93.9596	-205.464	0.49797	-38.3082	-197.538	0.371213	-70.9176	-179.146	-22.4136	-88.0297	-210.074	-20.2871	-28.6357	-205.72	-20.8894	-56.9344	-188.682	-27.9894	-74.272	-198.423	-7.59602	17.2613	-197.525	-21.182	41.8192	-172.638	10.3451	27.5276	
38	0.316667	-137.394	-0.544156	21.6729	-119.605	2.49904	-9.14349	-114.754	4.07244	-38.3765	-118.017	-2.33765	-60.2289	-174.745	28.7094	-38.4114	-166.823	28.2234	-71.8359	-154.557	9.15258	-90.254	-192.35	22.2239	-42.0527	-189.012	17.6747	-76.1383	-167.563	-7.68391	-95.9526	-202.567	4.48976	-40.1375	-198.991	0.933897	-70.2253	-180.45	-18.258	-87.2181	-208.056	-17.5699	-32.0887	-206.099	-20.8874	-57.8671	-185.973	-33.3876	-77.895	-200.552	-9.63405	15.2688	-193.638	-16.9213	40.853	-172.782	11.3775	28.7763	
39	0.325	-138.324	-0.658606	21.7418	-124.079	0.841269	-6.75727	-117.045	4.31257	-40.2107	-120.239	-0.34366	-66.5637	-176.132	28.8209	-43.4258	-170.363	28.336	-69.7484	-153.297	9.3807	-91.1008	-196.997	20.3987	-45.8253	-189.137	16.6753	-77.6259	-171.146	-4.69676	-94.8867	-202.426	4.86608	-39.4857	-199.299	-0.5107	-70.7323	-180.604	-21.5424	-88.4329	-209.751	-17.1362	-34.2913	-204.579	-20.483	-59.2356	-184.799	-33.6746	-75.4952	-200.283	-5.29747	15.808	-195.731	-19.0304	40.2599	-171.476	10.3338	29.8934	
